<svg xmlns="http://www.w3.org/2000/svg" width="38.392" height="29.532" viewBox="0 0 38.392 29.532">
  <g id="Icon_ionic-ios-barcode" data-name="Icon ionic-ios-barcode" transform="translate(0)">
    <path id="Path_196" data-name="Path 196" d="M10.167,33.7H6.4a.37.37,0,0,1-.369-.369V9.7A.37.37,0,0,1,6.4,9.334H10.14A1.359,1.359,0,0,0,11.5,8.042a1.213,1.213,0,0,0-.378-.923,1.649,1.649,0,0,0-1.1-.369H5.036A1.508,1.508,0,0,0,3.375,8.227V34.806a1.431,1.431,0,0,0,1.569,1.477h5.2a1.243,1.243,0,0,0,.978-2.132A1.367,1.367,0,0,0,10.167,33.7Z" transform="translate(-3.375 -6.75)" fill="#00598e"/>
    <path id="Path_197" data-name="Path 197" d="M32.99,6.75h-5.2A1.294,1.294,0,0,0,26.5,8.439a1,1,0,0,0,.074.175,1.306,1.306,0,0,0,1.191.72h3.765A.37.37,0,0,1,31.9,9.7V33.32a.37.37,0,0,1-.369.369H27.794a1.345,1.345,0,0,0-1.357,1.283,1.293,1.293,0,0,0,.378.96,1.271,1.271,0,0,0,.951.351H32.99a1.439,1.439,0,0,0,1.569-1.514V8.227A1.431,1.431,0,0,0,32.99,6.75Z" transform="translate(3.833 -6.75)" fill="#00598e"/>
    <path id="Path_198" data-name="Path 198" d="M8.921,12.375a1.294,1.294,0,0,0-1.292,1.283V25.849a1.292,1.292,0,0,0,2.584,0V13.658A1.294,1.294,0,0,0,8.921,12.375Z" transform="translate(-2.045 -4.992)" fill="#00598e"/>
    <path id="Path_199" data-name="Path 199" d="M27.694,27.141a1.294,1.294,0,0,0,1.292-1.283v-12.2a1.292,1.292,0,0,0-2.584,0V25.849A1.3,1.3,0,0,0,27.694,27.141Z" transform="translate(3.822 -4.992)" fill="#00598e"/>
    <path id="Path_200" data-name="Path 200" d="M23.265,10.125a1.316,1.316,0,0,0-1.292,1.329V29.459a1.293,1.293,0,1,0,2.584,0V11.454A1.316,1.316,0,0,0,23.265,10.125Z" transform="translate(2.438 -5.695)" fill="#00598e"/>
    <path id="Path_201" data-name="Path 201" d="M13.351,10.125a1.316,1.316,0,0,0-1.292,1.329V29.459a1.293,1.293,0,1,0,2.584,0V11.454A1.31,1.31,0,0,0,13.351,10.125Z" transform="translate(-0.661 -5.695)" fill="#00598e"/>
    <path id="Path_202" data-name="Path 202" d="M18.308,11.25a1.306,1.306,0,0,0-1.292,1.31V27.65a1.292,1.292,0,1,0,2.584,0V12.56A1.306,1.306,0,0,0,18.308,11.25Z" transform="translate(0.888 -5.344)" fill="#00598e"/>
  </g>
</svg>
