<svg xmlns="http://www.w3.org/2000/svg" xmlns:xlink="http://www.w3.org/1999/xlink" width="30" height="31" viewBox="0 0 30 31">
  <defs>
    <clipPath id="clip-path">
      <rect id="Rectangle_88" data-name="Rectangle 88" width="30" height="31" transform="translate(0.343 -0.313)" fill="#00598e"/>
    </clipPath>
  </defs>
  <g id="Group_313" data-name="Group 313" transform="translate(-0.343 0.313)">
    <g id="Group_312" data-name="Group 312" clip-path="url(#clip-path)">
      <path id="Path_319" data-name="Path 319" d="M148.022,6.583A1.446,1.446,0,0,1,146.453,7.6c-5.758-.016-11.517-.008-17.275-.009a1.261,1.261,0,0,1-1.337-.9,1.96,1.96,0,0,1-.055-.526c0-1.511.025-3.023-.014-4.533A1.492,1.492,0,0,1,128.748,0h17.96a1.316,1.316,0,0,1,.873.314,1.382,1.382,0,0,1,.129.129,1.319,1.319,0,0,1,.313.871Z" transform="translate(-117.649)" fill="#00598e"/>
      <path id="Path_320" data-name="Path 320" d="M148.037,150.2a1.447,1.447,0,0,1-1.57,1.017q-8.6-.024-17.2,0a1.378,1.378,0,0,1-1.483-1.48c.039-1.57.009-3.142.011-4.714a1.271,1.271,0,0,1,1.413-1.408c5.752,0,11.5.007,17.255-.009a1.444,1.444,0,0,1,1.569,1.017Z" transform="translate(-117.664 -132.232)" fill="#00598e"/>
      <path id="Path_321" data-name="Path 321" d="M148.037,293.921a1.446,1.446,0,0,1-1.57,1.017q-8.6-.024-17.2,0a1.378,1.378,0,0,1-1.483-1.48c.039-1.57.009-3.142.011-4.714a1.271,1.271,0,0,1,1.413-1.408c5.752,0,11.5.007,17.255-.009a1.445,1.445,0,0,1,1.569,1.017Z" transform="translate(-117.664 -264.565)" fill="#00598e"/>
      <path id="Path_322" data-name="Path 322" d="M6.592,0A1.43,1.43,0,0,1,7.609,1.569C7.58,3.109,7.6,4.65,7.6,6.191a1.277,1.277,0,0,1-1.4,1.4q-2.4,0-4.8,0A1.275,1.275,0,0,1,.01,6.191C.008,4.65.03,3.109,0,1.568A1.429,1.429,0,0,1,1.017,0Z" transform="translate(0)" fill="#00598e"/>
      <path id="Path_323" data-name="Path 323" d="M.105,147.493c0-.81,0-1.62,0-2.431a1.264,1.264,0,0,1,1.349-1.356q2.446,0,4.891,0A1.265,1.265,0,0,1,7.7,145.063q0,2.446,0,4.891A1.262,1.262,0,0,1,6.36,151.3q-2.46.005-4.921,0a1.262,1.262,0,0,1-1.334-1.342c0-.82,0-1.64,0-2.46" transform="translate(-0.096 -132.319)" fill="#00598e"/>
      <path id="Path_324" data-name="Path 324" d="M3.864,295.009c-.81,0-1.621,0-2.431,0A1.263,1.263,0,0,1,.1,293.666q0-2.46,0-4.921a1.257,1.257,0,0,1,1.319-1.326q2.475-.006,4.95,0a1.258,1.258,0,0,1,1.319,1.326q.006,2.475,0,4.95a1.257,1.257,0,0,1-1.3,1.312c-.84.006-1.68,0-2.52,0" transform="translate(-0.09 -264.645)" fill="#00598e"/>
    </g>
  </g>
</svg>
