<svg xmlns="http://www.w3.org/2000/svg" width="35" height="27" viewBox="0 0 35 27">
  <path id="Icon_ionic-ios-backspace" data-name="Icon ionic-ios-backspace" d="M32.57,6.75H18.688c-3.929,0-6.159,2.927-8.582,5.356s-6.066,6.3-6.066,6.3a2.657,2.657,0,0,0-.665,1.763,2.712,2.712,0,0,0,.665,1.771s2.886,3.172,6.066,6.368,4.77,5.44,8.582,5.44H32.57a5.916,5.916,0,0,0,5.805-5.989V12.57A5.771,5.771,0,0,0,32.57,6.75ZM31.081,24.691a1.346,1.346,0,0,1-1.9,1.906l-4.434-4.445L20.311,26.6a1.333,1.333,0,0,1-1.9,0,1.306,1.306,0,0,1,0-1.906l4.434-4.445L18.41,15.8a1.3,1.3,0,0,1,0-1.906,1.284,1.284,0,0,1,1.9,0l4.434,4.445,4.434-4.445a1.346,1.346,0,1,1,1.9,1.906l-4.434,4.445Z" transform="translate(-3.375 -6.75)" fill="#00598e"/>
</svg>
