<svg xmlns="http://www.w3.org/2000/svg" width="25.834" height="31" viewBox="0 0 25.834 31">
  <g id="trash" transform="translate(-42.667)">
    <path id="Path_325" data-name="Path 325" d="M67.208,5.167H63.2A6.47,6.47,0,0,0,56.875,0H54.289A6.47,6.47,0,0,0,47.96,5.167h-4a1.292,1.292,0,0,0,0,2.583H45.25V24.541A6.466,6.466,0,0,0,51.709,31h7.75a6.466,6.466,0,0,0,6.459-6.459V7.75h1.292a1.292,1.292,0,0,0,0-2.583ZM54.289,21.958a1.292,1.292,0,0,1-2.583,0v-7.75a1.292,1.292,0,0,1,2.583,0Zm5.167,0a1.292,1.292,0,1,1-2.583,0v-7.75a1.292,1.292,0,0,1,2.583,0ZM50.638,5.167a3.883,3.883,0,0,1,3.651-2.583h2.583a3.883,3.883,0,0,1,3.654,2.583Z" fill="#fe5f5f"/>
  </g>
</svg>
