<svg id="Group_334" data-name="Group 334" xmlns="http://www.w3.org/2000/svg" xmlns:xlink="http://www.w3.org/1999/xlink" width="33.685" height="33.738" viewBox="0 0 33.685 33.738">
  <defs>
    <clipPath id="clip-path">
      <rect id="Rectangle_92" data-name="Rectangle 92" width="33.685" height="33.738" fill="#fff"/>
    </clipPath>
  </defs>
  <g id="Group_328" data-name="Group 328" clip-path="url(#clip-path)">
    <path id="Path_326" data-name="Path 326" d="M28.069,33.677c.779,0,1.5.007,2.228,0a3.35,3.35,0,0,0,3.382-3.389q.012-11.173.006-22.345A1.264,1.264,0,0,0,33.3,7Q29.982,3.691,26.665.384a1.107,1.107,0,0,0-.624-.349C25.23-.006,24.415.019,23.578.019V.424q0,4.174,0,8.349a2.258,2.258,0,0,1-2.44,2.452h-8.6A2.257,2.257,0,0,1,10.1,8.77q0-4.174,0-8.349V.015C10.009.008,9.963,0,9.917,0c-2.2,0-4.4,0-6.6.005a3.273,3.273,0,0,0-.8.11A3.358,3.358,0,0,0,0,3.524q0,13.26,0,26.519c0,.14,0,.281,0,.421A3.218,3.218,0,0,0,2.46,33.518a24.586,24.586,0,0,0,3.154.22v-.515q0-4.718,0-9.436a3.376,3.376,0,0,1,3.581-3.581h15.3a3.375,3.375,0,0,1,3.577,3.584q0,4.718,0,9.436Zm-2.245-.016V33.34q0-4.805,0-9.61a1.143,1.143,0,0,0-1.275-1.278H9.148a1.143,1.143,0,0,0-1.288,1.3q0,4.77,0,9.54v.371ZM21.317.025H12.378V8.962h8.939Z" transform="translate(0 0)" fill="#fff"/>
    <path id="Path_327" data-name="Path 327" d="M28.069,33.677v-.45q0-4.718,0-9.436a3.375,3.375,0,0,0-3.577-3.584H9.195a3.376,3.376,0,0,0-3.581,3.581q0,4.718,0,9.436v.515a24.586,24.586,0,0,1-3.154-.22A3.218,3.218,0,0,1,0,30.464c-.005-.14,0-.281,0-.421Q0,16.784,0,3.524A3.358,3.358,0,0,1,2.526.116a3.273,3.273,0,0,1,.8-.11C5.52,0,7.719,0,9.917,0c.046,0,.092.007.187.014V.422q0,4.174,0,8.349a2.257,2.257,0,0,0,2.437,2.455h8.6a2.258,2.258,0,0,0,2.44-2.452q0-4.174,0-8.349V.019c.837,0,1.652-.025,2.463.016a1.107,1.107,0,0,1,.624.349Q29.991,3.682,33.3,7a1.264,1.264,0,0,1,.388.941q0,11.172-.006,22.345A3.35,3.35,0,0,1,30.3,33.675c-.725.008-1.449,0-2.228,0" transform="translate(0 0)" fill="#fff"/>
    <path id="Path_328" data-name="Path 328" d="M101.829,250.781H83.865v-.371q0-4.77,0-9.54a1.143,1.143,0,0,1,1.288-1.3h15.4a1.143,1.143,0,0,1,1.275,1.278q0,4.805,0,9.61Z" transform="translate(-76.006 -217.12)" fill="#fff"/>
    <rect id="Rectangle_91" data-name="Rectangle 91" width="8.939" height="8.937" transform="translate(12.378 0.025)" fill="#fff"/>
  </g>
</svg>
