<svg id="edit_1_" data-name="edit (1)" xmlns="http://www.w3.org/2000/svg" width="29.309" height="29.309" viewBox="0 0 29.309 29.309">
  <path id="Path_337" data-name="Path 337" d="M18,19.221v5.74a6.067,6.067,0,0,0,2.295-1.421l3.243-3.246A6.05,6.05,0,0,0,24.961,18h-5.74A1.221,1.221,0,0,0,18,19.221Z" transform="translate(3.981 3.981)" fill="#f79706"/>
  <path id="Path_338" data-name="Path 338" d="M7.431,16.471A4.885,4.885,0,0,0,6,19.926v1.64H7.64a4.885,4.885,0,0,0,3.455-1.431L24.928,6.3a2.591,2.591,0,0,0-3.664-3.664Z" transform="translate(1.327 0.416)" fill="#f79706"/>
  <path id="Path_339" data-name="Path 339" d="M29.309,6.047a4.991,4.991,0,0,1-1.319,2.4L14.149,22.278a7.28,7.28,0,0,1-5.182,2.146H7.327a2.442,2.442,0,0,1-2.442-2.442v-1.64a7.275,7.275,0,0,1,2.147-5.18L20.865,1.326A4.98,4.98,0,0,1,23.248,0H6.106A6.113,6.113,0,0,0,0,6.106V23.2a6.113,6.113,0,0,0,6.106,6.106H19.539V23.2A3.664,3.664,0,0,1,23.2,19.539h6.106V6.047Z" fill="#f79706"/>
</svg>
