<svg id="envelope_1_" data-name="envelope (1)" xmlns="http://www.w3.org/2000/svg" width="29.376" height="26.928" viewBox="0 0 29.376 26.928">
  <path id="Path_340" data-name="Path 340" d="M29.32,5.542l-10.3,10.3a6.129,6.129,0,0,1-8.656,0L.056,5.542C.039,5.735,0,5.91,0,6.1V20.791a6.127,6.127,0,0,0,6.12,6.12H23.256a6.127,6.127,0,0,0,6.12-6.12V6.1C29.376,5.91,29.337,5.735,29.32,5.542Z" transform="translate(0 0.017)" fill="#fff"/>
  <path id="Path_341" data-name="Path 341" d="M17.119,15.132,28.3,3.951A6.1,6.1,0,0,0,23.09,1H5.953A6.1,6.1,0,0,0,.744,3.951l11.18,11.181a3.681,3.681,0,0,0,5.195,0Z" transform="translate(0.167 -1)" fill="#fff"/>
</svg>
