<svg xmlns="http://www.w3.org/2000/svg" width="31.249" height="29.017" viewBox="0 0 31.249 29.017">
  <path id="Icon_ionic-ios-star" data-name="Icon ionic-ios-star" d="M32.313,13.419H22.053L18.935,4.114a1.13,1.13,0,0,0-2.12,0L13.7,13.419H3.366A1.119,1.119,0,0,0,2.25,14.535a.82.82,0,0,0,.021.188,1.072,1.072,0,0,0,.467.788l8.433,5.943-3.237,9.41a1.119,1.119,0,0,0,.384,1.256,1.079,1.079,0,0,0,.628.272,1.367,1.367,0,0,0,.7-.251l8.231-5.866,8.231,5.866a1.307,1.307,0,0,0,.7.251,1,1,0,0,0,.621-.272,1.106,1.106,0,0,0,.384-1.256l-3.237-9.41,8.363-6,.2-.174a1.17,1.17,0,0,0,.363-.746A1.181,1.181,0,0,0,32.313,13.419Z" transform="translate(-2.25 -3.375)" fill="#00598e"/>
</svg>
