<svg xmlns="http://www.w3.org/2000/svg" width="27.751" height="28.425" viewBox="0 0 27.751 28.425">
  <g id="Group_427" data-name="Group 427" transform="matrix(0.899, -0.438, 0.438, 0.899, 0.669, 9.118)">
    <path id="Path_342" data-name="Path 342" d="M8.733,20.737c-.374-.052-.751-.087-1.12-.16A9.79,9.79,0,0,1,.4,15.063,1.006,1.006,0,1,1,2.212,14.2a7.815,7.815,0,0,0,3.762,3.764A7.87,7.87,0,1,0,10.9,3.145a7.685,7.685,0,0,0-7.187,2.21c-.024.023-.045.049-.1.111.1,0,.171,0,.239,0,.967-.028,1.933-.063,2.9-.081a.936.936,0,0,1,.9.575.964.964,0,0,1-.136,1.081.974.974,0,0,1-.76.369q-2.7.084-5.394.163A1.087,1.087,0,0,1,.163,6.429Q.08,3.768,0,1.106a1.019,1.019,0,1,1,2.033-.073q.045,1.437.086,2.874c0,.046.005.091.01.173.069-.064.116-.106.161-.151A9.732,9.732,0,0,1,9.838.985a9.878,9.878,0,0,1,2.454,19.308,9.515,9.515,0,0,1-2.145.409,1.074,1.074,0,0,0-.156.034Z" transform="translate(0 0)" fill="#fff" stroke="#fff" stroke-width="1"/>
  </g>
</svg>
