<svg id="print" xmlns="http://www.w3.org/2000/svg" width="30.268" height="30.6" viewBox="0 0 30.268 30.6">
  <path id="Path_330" data-name="Path 330" d="M22.656,5.045A5.045,5.045,0,0,0,17.611,0H10.045A5.045,5.045,0,0,0,5,5.045V6.306H22.656Z" transform="translate(1.306)" fill="#fff"/>
  <rect id="Rectangle_99" data-name="Rectangle 99" width="18" height="11.7" rx="3" transform="translate(6.251 18.9)" fill="#fff"/>
  <path id="Path_331" data-name="Path 331" d="M23.962,7H6.306A6.313,6.313,0,0,0,0,13.306V18.35a6.306,6.306,0,0,0,3.783,5.771V20.873a6.313,6.313,0,0,1,6.306-6.306H20.178a6.313,6.313,0,0,1,6.306,6.306v3.249a6.306,6.306,0,0,0,3.783-5.771V13.306A6.313,6.313,0,0,0,23.962,7ZM22.7,12.045H20.178a1.261,1.261,0,1,1,0-2.522H22.7a1.261,1.261,0,0,1,0,2.522Z" transform="translate(0 1.828)" fill="#fff"/>
</svg>
