<svg id="Group_333" data-name="Group 333" xmlns="http://www.w3.org/2000/svg" xmlns:xlink="http://www.w3.org/1999/xlink" width="43.071" height="43" viewBox="0 0 43.071 43">
  <defs>
    <clipPath id="clip-path">
      <rect id="Rectangle_93" data-name="Rectangle 93" width="43.071" height="43" fill="#fff"/>
    </clipPath>
  </defs>
  <g id="Group_332" data-name="Group 332" clip-path="url(#clip-path)">
    <path id="Path_329" data-name="Path 329" d="M0,22.848V20.161c.025-.136.051-.272.076-.407.246-1.374.375-2.78.755-4.116A21.53,21.53,0,0,1,42.744,17.8c.131.784.219,1.575.327,2.363v2.687c-.024.108-.055.215-.071.325-.146.995-.238,2-.443,2.983a21.521,21.521,0,0,1-17.27,16.513c-.8.129-1.6.222-2.406.331H20.189c-.094-.023-.186-.053-.281-.067-.983-.143-1.975-.238-2.947-.432A21.516,21.516,0,0,1,.336,25.292C.205,24.481.111,23.663,0,22.848M18.173,16.83a3.363,3.363,0,0,1,6.726-.072,1.345,1.345,0,1,0,2.686-.07,5.561,5.561,0,0,0-.121-1.081,5.939,5.939,0,0,0-4.049-4.539c-.4-.139-.578-.339-.539-.76a7.423,7.423,0,0,0,0-.881,1.347,1.347,0,0,0-1.32-1.357,1.364,1.364,0,0,0-1.365,1.318,5.674,5.674,0,0,0,0,.881c.047.458-.152.676-.581.818a5.992,5.992,0,0,0-3.531,8.319,5.883,5.883,0,0,0,5.452,3.44,3.36,3.36,0,1,1-3.362,3.447,1.359,1.359,0,0,0-1.378-1.429,1.338,1.338,0,0,0-1.3,1.5,7.419,7.419,0,0,0,.371,1.922,5.8,5.8,0,0,0,3.75,3.639c.429.145.627.363.578.82a6.4,6.4,0,0,0,0,.839,1.348,1.348,0,0,0,1.319,1.358,1.369,1.369,0,0,0,1.367-1.318c.015-.265,0-.532,0-.8,0-.679,0-.679.66-.915A6.015,6.015,0,0,0,26.987,23.6a5.872,5.872,0,0,0-5.41-3.436,3.388,3.388,0,0,1-3.4-3.335" transform="translate(0 0)" fill="#fff"/>
  </g>
</svg>
