<svg id="Group_299" data-name="Group 299" xmlns="http://www.w3.org/2000/svg" xmlns:xlink="http://www.w3.org/1999/xlink" width="47.221" height="29.286" viewBox="0 0 47.221 29.286">
  <defs>
    <clipPath id="clip-path">
      <rect id="Rectangle_86" data-name="Rectangle 86" width="47.221" height="29.286" fill="#00598e"/>
    </clipPath>
  </defs>
  <g id="Group_298" data-name="Group 298" clip-path="url(#clip-path)">
    <path id="Path_307" data-name="Path 307" d="M264.358.753c-.184,1.071-.4,2.137-.544,3.214-.468,3.533-.96,7.063-1.342,10.606-.308,2.856-.5,5.725-.687,8.593-.131,2.023-.163,4.053-.241,6.118h-2.766c.1-2.737.2-5.462.3-8.226h-8.649V29.3H247.66v-.5q0-5.166,0-10.331c0-.154,0-.308.006-.461a2.238,2.238,0,0,1,2.136-2.39,13.114,13.114,0,0,1,1.791-.117c2.244-.008,4.489,0,6.733.014.4,0,.79.055,1.154.082L261.537.012l2.821.464Z" transform="translate(-217.137 -0.011)" fill="#00598e"/>
    <path id="Path_308" data-name="Path 308" d="M98.985,60.847V58.131h2.726v-16.6H90.7V36.013h24.852v5.479H104.534V58.1h2.71v2.751Z" transform="translate(-79.518 -31.574)" fill="#00598e"/>
    <path id="Path_309" data-name="Path 309" d="M5.262,21.031c.1,2.766.2,5.493.305,8.251h-2.8A197.02,197.02,0,0,0,0,.5C.183.461.344.416.508.388,1.231.263,1.955.143,2.806,0L4.849,15.475H6.917c2.137,0,4.274,0,6.411.015a8.264,8.264,0,0,1,1.146.1,2.263,2.263,0,0,1,2.2,2.517c.019,1.476.007,2.952.007,4.428q0,3.114,0,6.227v.522H13.926V21.031Z" fill="#00598e"/>
  </g>
</svg>
