<svg id="Group_320" data-name="Group 320" xmlns="http://www.w3.org/2000/svg" width="25.953" height="33.163" viewBox="0 0 25.953 33.163">
  <path id="Path_14" data-name="Path 14" d="M20.321,202.369h-.079a.5.5,0,0,0-.076-.017l-.943-.062c-.737-.048-1.474-.1-2.211-.143-.93-.055-1.861-.116-2.792-.153-1.346-.054-2.692-.012-4.036.063-.839.047-1.677.107-2.517.15s-1.7.071-2.549.108a7.039,7.039,0,0,1-2.314-.282A3.42,3.42,0,0,1,.509,200.07a6.468,6.468,0,0,1-.468-2.055c-.017-.192-.028-.384-.041-.576v-.432c0-.039.011-.077.014-.116.015-.251.025-.5.045-.754a12.123,12.123,0,0,1,.511-2.712A12.879,12.879,0,0,1,7.424,185.5a.327.327,0,0,1,.366.028,9.028,9.028,0,0,0,4.455,1.63,8.711,8.711,0,0,0,2.44-.135,9,9,0,0,0,3.471-1.49.33.33,0,0,1,.391-.024c.447.255.905.492,1.342.763a13.053,13.053,0,0,1,3.323,2.95,13.344,13.344,0,0,1,2.721,8.6,7.29,7.29,0,0,1-.373,1.95,3.4,3.4,0,0,1-1.513,1.9,4.667,4.667,0,0,1-1.951.559c-.471.043-.943.07-1.414.105-.12.009-.24.024-.36.036" transform="translate(0 -169.206)" fill="#fff"/>
  <path id="Path_15" data-name="Path 15" d="M68.693,0l.44.037A7.857,7.857,0,0,1,74.187,2.43a7.7,7.7,0,0,1,2.152,4.259,7.917,7.917,0,0,1-5.151,8.768,7.845,7.845,0,0,1-3.5.453,7.946,7.946,0,0,1-7.034-6.149,7.692,7.692,0,0,1,1.687-6.925A7.711,7.711,0,0,1,66.817.178c.409-.085.831-.109,1.248-.16L68.2,0Z" transform="translate(-55.468)" fill="#fff"/>
</svg>
