<svg id="Group_309" data-name="Group 309" xmlns="http://www.w3.org/2000/svg" width="29.789" height="29.783" viewBox="0 0 29.789 29.783">
  <g id="Group_310" data-name="Group 310" transform="translate(0 0)">
    <path id="Path_310" data-name="Path 310" d="M116.025,111.751c.9,0,1.8,0,2.7,0a1.4,1.4,0,0,1,1.484,1.493q.005,2.737,0,5.474a1.4,1.4,0,0,1-1.468,1.475q-2.754.007-5.509,0a1.4,1.4,0,0,1-1.467-1.476q-.006-2.754,0-5.507a1.4,1.4,0,0,1,1.451-1.458c.935-.006,1.869,0,2.8,0" transform="translate(-101.097 -101.082)" fill="#fff"/>
    <path id="Path_311" data-name="Path 311" d="M0,4.212c0-.9,0-1.8,0-2.7A1.385,1.385,0,0,1,1.5,0Q4.218,0,6.939,0A1.4,1.4,0,0,1,8.446,1.5q.011,2.72,0,5.44a1.409,1.409,0,0,1-1.487,1.5q-2.737.014-5.475,0A1.4,1.4,0,0,1,0,6.949C0,6.037,0,5.125,0,4.212" transform="translate(0 0)" fill="#fff"/>
    <path id="Path_312" data-name="Path 312" d="M4.216,231.937c-.89,0-1.781,0-2.671,0A1.4,1.4,0,0,1,0,230.411Q0,227.724,0,225.037a1.411,1.411,0,0,1,1.533-1.543q2.688-.006,5.376,0a1.42,1.42,0,0,1,1.535,1.517q.01,2.7,0,5.408a1.407,1.407,0,0,1-1.526,1.517c-.9,0-1.8,0-2.7,0" transform="translate(0 -202.156)" fill="#fff"/>
    <path id="Path_313" data-name="Path 313" d="M227.771.009c.9,0,1.8,0,2.7,0a1.386,1.386,0,0,1,1.5,1.5q.007,2.72,0,5.44a1.4,1.4,0,0,1-1.478,1.5q-2.737.013-5.475,0a1.411,1.411,0,0,1-1.489-1.5q-.011-2.72,0-5.44a1.4,1.4,0,0,1,1.5-1.5c.912-.005,1.825,0,2.737,0" transform="translate(-202.187 -0.006)" fill="#fff"/>
    <path id="Path_314" data-name="Path 314" d="M116.022.007c.9,0,1.8,0,2.7,0a1.4,1.4,0,0,1,1.5,1.507q0,2.7,0,5.408A1.415,1.415,0,0,1,118.7,8.45q-2.7.009-5.409,0a1.418,1.418,0,0,1-1.514-1.534q0-2.687,0-5.375A1.4,1.4,0,0,1,113.318.008c.9,0,1.8,0,2.7,0" transform="translate(-101.108 -0.005)" fill="#fff"/>
    <path id="Path_315" data-name="Path 315" d="M0,115.949c0-.89,0-1.781,0-2.671a1.4,1.4,0,0,1,1.52-1.518q2.688,0,5.376,0a1.42,1.42,0,0,1,1.547,1.534q.008,2.687,0,5.375A1.421,1.421,0,0,1,6.9,120.2q-2.688,0-5.376,0a1.4,1.4,0,0,1-1.521-1.518c0-.912,0-1.825,0-2.737" transform="translate(-0.003 -101.091)" fill="#fff"/>
    <path id="Path_316" data-name="Path 316" d="M231.972,116.011c0,.89,0,1.781,0,2.671a1.4,1.4,0,0,1-1.522,1.517q-2.7,0-5.409,0a1.41,1.41,0,0,1-1.512-1.5q-.011-2.72,0-5.441a1.409,1.409,0,0,1,1.514-1.5q2.721,0,5.442,0a1.391,1.391,0,0,1,1.486,1.485c.007.923,0,1.847,0,2.77" transform="translate(-202.186 -101.086)" fill="#fff"/>
    <path id="Path_317" data-name="Path 317" d="M115.979,231.94c-.89,0-1.781,0-2.672,0a1.406,1.406,0,0,1-1.527-1.545q0-2.671,0-5.342a1.424,1.424,0,0,1,1.558-1.556q2.672,0,5.343,0a1.419,1.419,0,0,1,1.544,1.537q0,2.687,0,5.375a1.406,1.406,0,0,1-1.542,1.53c-.9,0-1.8,0-2.7,0" transform="translate(-101.109 -202.159)" fill="#fff"/>
    <path id="Path_318" data-name="Path 318" d="M231.979,227.727c0,.9,0,1.8,0,2.7a1.387,1.387,0,0,1-1.5,1.5q-2.721.008-5.442,0a1.4,1.4,0,0,1-1.5-1.507q-.009-2.7,0-5.408a1.42,1.42,0,0,1,1.526-1.526q2.7-.008,5.409,0a1.4,1.4,0,0,1,1.509,1.5c.006.912,0,1.825,0,2.737" transform="translate(-202.192 -202.151)" fill="#fff"/>
  </g>
</svg>
